<?xml version="1.0" encoding="utf-8" standalone="no"?>
<!DOCTYPE svg PUBLIC "-//W3C//DTD SVG 1.1//EN"
  "http://www.w3.org/Graphics/SVG/1.1/DTD/svg11.dtd">
<svg xmlns:xlink="http://www.w3.org/1999/xlink" width="460.8pt" height="236.16pt" viewBox="0 0 460.8 236.16" xmlns="http://www.w3.org/2000/svg" version="1.1">
 <metadata>
  <rdf:RDF xmlns:dc="http://purl.org/dc/elements/1.1/" xmlns:cc="http://creativecommons.org/ns#" xmlns:rdf="http://www.w3.org/1999/02/22-rdf-syntax-ns#">
   <cc:Work>
    <dc:type rdf:resource="http://purl.org/dc/dcmitype/StillImage"/>
    <dc:date>2025-06-07T21:23:40.822717</dc:date>
    <dc:format>image/svg+xml</dc:format>
    <dc:creator>
     <cc:Agent>
      <dc:title>Matplotlib v3.6.3, https://matplotlib.org/</dc:title>
     </cc:Agent>
    </dc:creator>
   </cc:Work>
  </rdf:RDF>
 </metadata>
 <defs>
  <style type="text/css">*{stroke-linejoin: round; stroke-linecap: butt}</style>
 </defs>
 <g id="figure_1">
  <g id="patch_1">
   <path d="M 0 236.16 
L 460.8 236.16 
L 460.8 0 
L 0 0 
L 0 236.16 
z
" style="fill: none"/>
  </g>
  <g id="axes_1"/>
  <g id="text_1">
   <!-- $\sum_{i\in\mathrm{RF}} p_i q^{\mathrm{RF}}_i + \sum_{i\in\mathrm{RV}} p_i q^{\mathrm{RV}}_i \leq A$ -->
   <g style="fill: #333333" transform="translate(113.94 30.42) scale(0.18 -0.18)">
    <defs>
     <path id="DejaVuSansDisplay-2211" d="M 244 6509 
L 5803 6509 
L 5803 5656 
L 1566 5656 
L 4534 2488 
L 1469 -888 
L 5919 -888 
L 5919 -1738 
L 109 -1738 
L 109 -1078 
L 3316 2463 
L 244 5728 
L 244 6509 
z
" transform="scale(0.015625)"/>
     <path id="DejaVuSans-Oblique-69" d="M 1172 4863 
L 1747 4863 
L 1606 4134 
L 1031 4134 
L 1172 4863 
z
M 909 3500 
L 1484 3500 
L 800 0 
L 225 0 
L 909 3500 
z
" transform="scale(0.015625)"/>
     <path id="DejaVuSans-2208" d="M 1072 1959 
Q 1094 1728 1291 1353 
Q 1522 919 1959 675 
Q 2388 438 2850 434 
L 5028 434 
L 5028 -63 
L 2850 -63 
Q 2250 -63 1695 246 
Q 1141 556 844 1106 
Q 547 1656 547 2241 
Q 547 2819 844 3369 
Q 1141 3919 1695 4231 
Q 2250 4544 2850 4544 
L 5028 4544 
L 5028 4047 
L 2850 4047 
Q 2388 4044 1959 3803 
Q 1525 3556 1291 3125 
Q 1091 2750 1063 2459 
L 5028 2459 
L 5028 1959 
L 1072 1959 
z
" transform="scale(0.015625)"/>
     <path id="DejaVuSans-52" d="M 2841 2188 
Q 3044 2119 3236 1894 
Q 3428 1669 3622 1275 
L 4263 0 
L 3584 0 
L 2988 1197 
Q 2756 1666 2539 1819 
Q 2322 1972 1947 1972 
L 1259 1972 
L 1259 0 
L 628 0 
L 628 4666 
L 2053 4666 
Q 2853 4666 3247 4331 
Q 3641 3997 3641 3322 
Q 3641 2881 3436 2590 
Q 3231 2300 2841 2188 
z
M 1259 4147 
L 1259 2491 
L 2053 2491 
Q 2509 2491 2742 2702 
Q 2975 2913 2975 3322 
Q 2975 3731 2742 3939 
Q 2509 4147 2053 4147 
L 1259 4147 
z
" transform="scale(0.015625)"/>
     <path id="DejaVuSans-46" d="M 628 4666 
L 3309 4666 
L 3309 4134 
L 1259 4134 
L 1259 2759 
L 3109 2759 
L 3109 2228 
L 1259 2228 
L 1259 0 
L 628 0 
L 628 4666 
z
" transform="scale(0.015625)"/>
     <path id="DejaVuSans-Oblique-70" d="M 3175 2156 
Q 3175 2616 2975 2859 
Q 2775 3103 2400 3103 
Q 2144 3103 1911 2972 
Q 1678 2841 1497 2591 
Q 1319 2344 1212 1994 
Q 1106 1644 1106 1300 
Q 1106 863 1306 627 
Q 1506 391 1875 391 
Q 2147 391 2380 519 
Q 2613 647 2778 891 
Q 2956 1147 3065 1494 
Q 3175 1841 3175 2156 
z
M 1394 2969 
Q 1625 3272 1939 3428 
Q 2253 3584 2638 3584 
Q 3175 3584 3472 3232 
Q 3769 2881 3769 2247 
Q 3769 1728 3584 1258 
Q 3400 788 3053 416 
Q 2822 169 2531 39 
Q 2241 -91 1919 -91 
Q 1547 -91 1294 64 
Q 1041 219 916 525 
L 556 -1331 
L -19 -1331 
L 922 3500 
L 1497 3500 
L 1394 2969 
z
" transform="scale(0.015625)"/>
     <path id="DejaVuSans-Oblique-71" d="M 2669 525 
Q 2438 222 2123 65 
Q 1809 -91 1428 -91 
Q 897 -91 595 267 
Q 294 625 294 1253 
Q 294 1759 480 2231 
Q 666 2703 1013 3078 
Q 1238 3322 1530 3453 
Q 1822 3584 2144 3584 
Q 2531 3584 2781 3431 
Q 3031 3278 3144 2969 
L 3244 3494 
L 3822 3494 
L 2888 -1319 
L 2309 -1319 
L 2669 525 
z
M 891 1338 
Q 891 875 1084 633 
Q 1278 391 1644 391 
Q 2188 391 2572 911 
Q 2956 1431 2956 2175 
Q 2956 2625 2757 2864 
Q 2559 3103 2188 3103 
Q 1916 3103 1684 2976 
Q 1453 2850 1281 2606 
Q 1100 2350 995 2006 
Q 891 1663 891 1338 
z
" transform="scale(0.015625)"/>
     <path id="DejaVuSans-2b" d="M 2944 4013 
L 2944 2272 
L 4684 2272 
L 4684 1741 
L 2944 1741 
L 2944 0 
L 2419 0 
L 2419 1741 
L 678 1741 
L 678 2272 
L 2419 2272 
L 2419 4013 
L 2944 4013 
z
" transform="scale(0.015625)"/>
     <path id="DejaVuSans-56" d="M 1831 0 
L 50 4666 
L 709 4666 
L 2188 738 
L 3669 4666 
L 4325 4666 
L 2547 0 
L 1831 0 
z
" transform="scale(0.015625)"/>
     <path id="DejaVuSans-2264" d="M 4684 3175 
L 1684 2309 
L 4684 1453 
L 4684 897 
L 678 2047 
L 678 2578 
L 4684 3725 
L 4684 3175 
z
M 678 531 
L 4684 531 
L 4684 0 
L 678 0 
L 678 531 
z
" transform="scale(0.015625)"/>
     <path id="DejaVuSans-Oblique-41" d="M 2356 4666 
L 3072 4666 
L 3938 0 
L 3278 0 
L 3084 1197 
L 984 1197 
L 325 0 
L -341 0 
L 2356 4666 
z
M 2584 4044 
L 1275 1722 
L 2988 1722 
L 2584 4044 
z
" transform="scale(0.015625)"/>
    </defs>
    <use xlink:href="#DejaVuSansDisplay-2211" transform="translate(53 0.296875)"/>
    <use xlink:href="#DejaVuSans-Oblique-69" transform="translate(0 -98.798438) scale(0.7)"/>
    <use xlink:href="#DejaVuSans-2208" transform="translate(33.085938 -98.798438) scale(0.7)"/>
    <use xlink:href="#DejaVuSans-52" transform="translate(107.700195 -98.798438) scale(0.7)"/>
    <use xlink:href="#DejaVuSans-46" transform="translate(156.337891 -98.798438) scale(0.7)"/>
    <use xlink:href="#DejaVuSans-Oblique-70" transform="translate(196.601562 0.296875)"/>
    <use xlink:href="#DejaVuSans-Oblique-69" transform="translate(260.078125 -16.109375) scale(0.7)"/>
    <use xlink:href="#DejaVuSans-Oblique-71" transform="translate(282.260742 0.296875)"/>
    <use xlink:href="#DejaVuSans-52" transform="translate(350.387201 38.642187) scale(0.7)"/>
    <use xlink:href="#DejaVuSans-46" transform="translate(399.024896 38.642187) scale(0.7)"/>
    <use xlink:href="#DejaVuSans-Oblique-69" transform="translate(345.737305 -27.046875) scale(0.7)"/>
    <use xlink:href="#DejaVuSans-2b" transform="translate(461.505365 0.296875)"/>
    <use xlink:href="#DejaVuSansDisplay-2211" transform="translate(621.776849 0.296875)"/>
    <use xlink:href="#DejaVuSans-Oblique-69" transform="translate(564.776849 -98.798438) scale(0.7)"/>
    <use xlink:href="#DejaVuSans-2208" transform="translate(597.862786 -98.798438) scale(0.7)"/>
    <use xlink:href="#DejaVuSans-52" transform="translate(672.477044 -98.798438) scale(0.7)"/>
    <use xlink:href="#DejaVuSans-56" transform="translate(721.11474 -98.798438) scale(0.7)"/>
    <use xlink:href="#DejaVuSans-Oblique-70" transform="translate(769.000482 0.296875)"/>
    <use xlink:href="#DejaVuSans-Oblique-69" transform="translate(832.477044 -16.109375) scale(0.7)"/>
    <use xlink:href="#DejaVuSans-Oblique-71" transform="translate(854.659661 0.296875)"/>
    <use xlink:href="#DejaVuSans-52" transform="translate(922.78612 38.642187) scale(0.7)"/>
    <use xlink:href="#DejaVuSans-56" transform="translate(971.423815 38.642187) scale(0.7)"/>
    <use xlink:href="#DejaVuSans-Oblique-69" transform="translate(918.136224 -27.046875) scale(0.7)"/>
    <use xlink:href="#DejaVuSans-2264" transform="translate(1041.526354 0.296875)"/>
    <use xlink:href="#DejaVuSans-Oblique-41" transform="translate(1144.797839 0.296875)"/>
   </g>
  </g>
  <g id="text_2">
   <!-- $g_i \geq d_i - p_i q^{\mathrm{RF}}_i,\; \forall\, i\in\mathrm{RF}$ -->
   <g style="fill: #333333" transform="translate(123.57 87.66) scale(0.18 -0.18)">
    <defs>
     <path id="DejaVuSans-Oblique-67" d="M 3816 3500 
L 3219 434 
Q 3047 -456 2561 -893 
Q 2075 -1331 1253 -1331 
Q 950 -1331 690 -1286 
Q 431 -1241 206 -1147 
L 313 -588 
Q 525 -725 762 -790 
Q 1000 -856 1269 -856 
Q 1816 -856 2167 -557 
Q 2519 -259 2631 300 
L 2681 563 
Q 2441 288 2122 144 
Q 1803 0 1434 0 
Q 903 0 598 351 
Q 294 703 294 1319 
Q 294 1803 478 2267 
Q 663 2731 997 3091 
Q 1219 3328 1514 3456 
Q 1809 3584 2131 3584 
Q 2484 3584 2746 3420 
Q 3009 3256 3138 2956 
L 3238 3500 
L 3816 3500 
z
M 2950 2216 
Q 2950 2641 2750 2872 
Q 2550 3103 2181 3103 
Q 1953 3103 1747 3012 
Q 1541 2922 1394 2759 
Q 1156 2491 1023 2127 
Q 891 1763 891 1375 
Q 891 944 1092 712 
Q 1294 481 1672 481 
Q 2219 481 2584 976 
Q 2950 1472 2950 2216 
z
" transform="scale(0.015625)"/>
     <path id="DejaVuSans-2265" d="M 678 3175 
L 678 3725 
L 4684 2578 
L 4684 2047 
L 678 897 
L 678 1453 
L 3681 2309 
L 678 3175 
z
M 4684 531 
L 4684 0 
L 678 0 
L 678 531 
L 4684 531 
z
" transform="scale(0.015625)"/>
     <path id="DejaVuSans-Oblique-64" d="M 2675 525 
Q 2444 222 2128 65 
Q 1813 -91 1428 -91 
Q 903 -91 598 267 
Q 294 625 294 1247 
Q 294 1766 478 2236 
Q 663 2706 1013 3078 
Q 1244 3325 1534 3454 
Q 1825 3584 2144 3584 
Q 2481 3584 2739 3421 
Q 2997 3259 3138 2956 
L 3513 4863 
L 4091 4863 
L 3144 0 
L 2566 0 
L 2675 525 
z
M 891 1350 
Q 891 897 1095 644 
Q 1300 391 1663 391 
Q 1931 391 2161 520 
Q 2391 650 2566 903 
Q 2750 1166 2856 1509 
Q 2963 1853 2963 2188 
Q 2963 2622 2758 2865 
Q 2553 3109 2194 3109 
Q 1922 3109 1687 2981 
Q 1453 2853 1288 2613 
Q 1106 2353 998 2009 
Q 891 1666 891 1350 
z
" transform="scale(0.015625)"/>
     <path id="DejaVuSans-2212" d="M 678 2272 
L 4684 2272 
L 4684 1741 
L 678 1741 
L 678 2272 
z
" transform="scale(0.015625)"/>
     <path id="DejaVuSans-2c" d="M 750 794 
L 1409 794 
L 1409 256 
L 897 -744 
L 494 -744 
L 750 256 
L 750 794 
z
" transform="scale(0.015625)"/>
     <path id="DejaVuSans-2200" d="M 2188 622 
L 3047 2944 
L 1331 2944 
L 2188 622 
z
M 1831 0 
L 50 4666 
L 716 4666 
L 1141 3469 
L 3244 3469 
L 3669 4666 
L 4325 4666 
L 2547 0 
L 1831 0 
z
" transform="scale(0.015625)"/>
    </defs>
    <use xlink:href="#DejaVuSans-Oblique-67" transform="translate(0 0.620313)"/>
    <use xlink:href="#DejaVuSans-Oblique-69" transform="translate(63.476562 -15.785937) scale(0.7)"/>
    <use xlink:href="#DejaVuSans-2265" transform="translate(105.141602 0.620313)"/>
    <use xlink:href="#DejaVuSans-Oblique-64" transform="translate(208.413086 0.620313)"/>
    <use xlink:href="#DejaVuSans-Oblique-69" transform="translate(271.889648 -15.785937) scale(0.7)"/>
    <use xlink:href="#DejaVuSans-2212" transform="translate(313.554688 0.620313)"/>
    <use xlink:href="#DejaVuSans-Oblique-70" transform="translate(416.826172 0.620313)"/>
    <use xlink:href="#DejaVuSans-Oblique-69" transform="translate(480.302734 -15.785937) scale(0.7)"/>
    <use xlink:href="#DejaVuSans-Oblique-71" transform="translate(502.485352 0.620313)"/>
    <use xlink:href="#DejaVuSans-52" transform="translate(570.61181 38.965625) scale(0.7)"/>
    <use xlink:href="#DejaVuSans-46" transform="translate(619.249505 38.965625) scale(0.7)"/>
    <use xlink:href="#DejaVuSans-Oblique-69" transform="translate(565.961914 -26.723437) scale(0.7)"/>
    <use xlink:href="#DejaVuSans-2c" transform="translate(662.247552 0.620313)"/>
    <use xlink:href="#DejaVuSans-2200" transform="translate(740.576219 0.620313)"/>
    <use xlink:href="#DejaVuSans-Oblique-69" transform="translate(825.220098 0.620313)"/>
    <use xlink:href="#DejaVuSans-2208" transform="translate(872.485723 0.620313)"/>
    <use xlink:href="#DejaVuSans-52" transform="translate(979.07752 0.620313)"/>
    <use xlink:href="#DejaVuSans-46" transform="translate(1048.559942 0.620313)"/>
   </g>
  </g>
  <g id="text_3">
   <!-- $g_i \geq d_i - p_i q^{\mathrm{RV}}_i,\; \forall\, i\in\mathrm{RV}$ -->
   <g style="fill: #333333" transform="translate(121.95 139.5) scale(0.18 -0.18)">
    <use xlink:href="#DejaVuSans-Oblique-67" transform="translate(0 0.620313)"/>
    <use xlink:href="#DejaVuSans-Oblique-69" transform="translate(63.476562 -15.785937) scale(0.7)"/>
    <use xlink:href="#DejaVuSans-2265" transform="translate(105.141602 0.620313)"/>
    <use xlink:href="#DejaVuSans-Oblique-64" transform="translate(208.413086 0.620313)"/>
    <use xlink:href="#DejaVuSans-Oblique-69" transform="translate(271.889648 -15.785937) scale(0.7)"/>
    <use xlink:href="#DejaVuSans-2212" transform="translate(313.554688 0.620313)"/>
    <use xlink:href="#DejaVuSans-Oblique-70" transform="translate(416.826172 0.620313)"/>
    <use xlink:href="#DejaVuSans-Oblique-69" transform="translate(480.302734 -15.785937) scale(0.7)"/>
    <use xlink:href="#DejaVuSans-Oblique-71" transform="translate(502.485352 0.620313)"/>
    <use xlink:href="#DejaVuSans-52" transform="translate(570.61181 38.965625) scale(0.7)"/>
    <use xlink:href="#DejaVuSans-56" transform="translate(619.249505 38.965625) scale(0.7)"/>
    <use xlink:href="#DejaVuSans-Oblique-69" transform="translate(565.961914 -26.723437) scale(0.7)"/>
    <use xlink:href="#DejaVuSans-2c" transform="translate(669.869622 0.620313)"/>
    <use xlink:href="#DejaVuSans-2200" transform="translate(748.198289 0.620313)"/>
    <use xlink:href="#DejaVuSans-Oblique-69" transform="translate(832.842169 0.620313)"/>
    <use xlink:href="#DejaVuSans-2208" transform="translate(880.107794 0.620313)"/>
    <use xlink:href="#DejaVuSans-52" transform="translate(986.699591 0.620313)"/>
    <use xlink:href="#DejaVuSans-56" transform="translate(1056.182013 0.620313)"/>
   </g>
  </g>
  <g id="text_4">
   <!-- $q^{\mathrm{RF}}_i \geq 0,\; q^{\mathrm{RV}}_i \in \mathbb{Z}_{\geq 0},\; g_i \geq 0,\; \forall\, i$ -->
   <g style="fill: #333333" transform="translate(91.08 191.34) scale(0.18 -0.18)">
    <defs>
     <path id="DejaVuSans-30" d="M 2034 4250 
Q 1547 4250 1301 3770 
Q 1056 3291 1056 2328 
Q 1056 1369 1301 889 
Q 1547 409 2034 409 
Q 2525 409 2770 889 
Q 3016 1369 3016 2328 
Q 3016 3291 2770 3770 
Q 2525 4250 2034 4250 
z
M 2034 4750 
Q 2819 4750 3233 4129 
Q 3647 3509 3647 2328 
Q 3647 1150 3233 529 
Q 2819 -91 2034 -91 
Q 1250 -91 836 529 
Q 422 1150 422 2328 
Q 422 3509 836 4129 
Q 1250 4750 2034 4750 
z
" transform="scale(0.015625)"/>
     <path id="STIXGeneral-Italic-2124" d="M 4800 3942 
L 1382 256 
L 1382 237 
L 4128 237 
L 4070 0 
L 45 0 
L 45 237 
L 3494 3930 
L 3494 3942 
L 909 3942 
L 966 4179 
L 4800 4179 
L 4800 3942 
z
M 4467 3942 
L 3827 3942 
L 390 237 
L 1050 237 
L 4467 3942 
z
" transform="scale(0.015625)"/>
    </defs>
    <use xlink:href="#DejaVuSans-Oblique-71" transform="translate(0 0.620313)"/>
    <use xlink:href="#DejaVuSans-52" transform="translate(68.126458 38.965625) scale(0.7)"/>
    <use xlink:href="#DejaVuSans-46" transform="translate(116.764154 38.965625) scale(0.7)"/>
    <use xlink:href="#DejaVuSans-Oblique-69" transform="translate(63.476562 -26.723437) scale(0.7)"/>
    <use xlink:href="#DejaVuSans-2265" transform="translate(179.244622 0.620313)"/>
    <use xlink:href="#DejaVuSans-30" transform="translate(282.516107 0.620313)"/>
    <use xlink:href="#DejaVuSans-2c" transform="translate(346.139154 0.620313)"/>
    <use xlink:href="#DejaVuSans-Oblique-71" transform="translate(424.467821 0.620313)"/>
    <use xlink:href="#DejaVuSans-52" transform="translate(492.594279 38.965625) scale(0.7)"/>
    <use xlink:href="#DejaVuSans-56" transform="translate(541.231974 38.965625) scale(0.7)"/>
    <use xlink:href="#DejaVuSans-Oblique-69" transform="translate(487.944383 -26.723437) scale(0.7)"/>
    <use xlink:href="#DejaVuSans-2208" transform="translate(611.334513 0.620313)"/>
    <use xlink:href="#STIXGeneral-Italic-2124" transform="translate(717.92631 0.620313)"/>
    <use xlink:href="#DejaVuSans-2265" transform="translate(806.963999 -15.785937) scale(0.7)"/>
    <use xlink:href="#DejaVuSans-30" transform="translate(879.254038 -15.785937) scale(0.7)"/>
    <use xlink:href="#DejaVuSans-2c" transform="translate(926.524546 0.620313)"/>
    <use xlink:href="#DejaVuSans-Oblique-67" transform="translate(1004.853213 0.620313)"/>
    <use xlink:href="#DejaVuSans-Oblique-69" transform="translate(1068.329776 -15.785937) scale(0.7)"/>
    <use xlink:href="#DejaVuSans-2265" transform="translate(1109.994815 0.620313)"/>
    <use xlink:href="#DejaVuSans-30" transform="translate(1213.266299 0.620313)"/>
    <use xlink:href="#DejaVuSans-2c" transform="translate(1276.889346 0.620313)"/>
    <use xlink:href="#DejaVuSans-2200" transform="translate(1355.218013 0.620313)"/>
    <use xlink:href="#DejaVuSans-Oblique-69" transform="translate(1439.861892 0.620313)"/>
   </g>
  </g>
 </g>
</svg>
